<svg width="24" height="25" viewBox="0 0 24 25" fill="none" xmlns="http://www.w3.org/2000/svg">
<path d="M12 15.625C13.6569 15.625 15 14.2259 15 12.5C15 10.7741 13.6569 9.375 12 9.375C10.3431 9.375 9 10.7741 9 12.5C9 14.2259 10.3431 15.625 12 15.625Z" stroke="white" stroke-width="2" stroke-linecap="round" stroke-linejoin="round"/>
<path d="M19.4 15.6251C19.2669 15.9393 19.2272 16.2878 19.286 16.6257C19.3448 16.9636 19.4995 17.2754 19.73 17.5209L19.79 17.5834C19.976 17.7769 20.1235 18.0067 20.2241 18.2596C20.3248 18.5125 20.3766 18.7836 20.3766 19.0574C20.3766 19.3312 20.3248 19.6023 20.2241 19.8552C20.1235 20.1081 19.976 20.3378 19.79 20.5313C19.6043 20.725 19.3837 20.8787 19.1409 20.9835C18.8981 21.0884 18.6378 21.1423 18.375 21.1423C18.1122 21.1423 17.8519 21.0884 17.6091 20.9835C17.3663 20.8787 17.1457 20.725 16.96 20.5313L16.9 20.4688C16.6643 20.2287 16.365 20.0676 16.0406 20.0063C15.7162 19.9451 15.3816 19.9864 15.08 20.1251C14.7842 20.2571 14.532 20.4764 14.3543 20.7558C14.1766 21.0353 14.0813 21.3628 14.08 21.698V21.8751C14.08 22.4276 13.8693 22.9575 13.4942 23.3482C13.1191 23.7389 12.6104 23.9584 12.08 23.9584C11.5496 23.9584 11.0409 23.7389 10.6658 23.3482C10.2907 22.9575 10.08 22.4276 10.08 21.8751V21.7813C10.0723 21.4365 9.96512 21.1022 9.77251 20.8216C9.5799 20.5411 9.31074 20.3275 9 20.2084C8.69838 20.0698 8.36381 20.0284 8.03941 20.0897C7.71502 20.1509 7.41568 20.312 7.18 20.5522L7.12 20.6147C6.93425 20.8084 6.71368 20.962 6.47088 21.0669C6.22808 21.1717 5.96783 21.2257 5.705 21.2257C5.44217 21.2257 5.18192 21.1717 4.93912 21.0669C4.69632 20.962 4.47575 20.8084 4.29 20.6147C4.10405 20.4212 3.95653 20.1914 3.85588 19.9385C3.75523 19.6856 3.70343 19.4145 3.70343 19.1407C3.70343 18.8669 3.75523 18.5958 3.85588 18.3429C3.95653 18.09 4.10405 17.8602 4.29 17.6667L4.35 17.6042C4.58054 17.3587 4.73519 17.0469 4.794 16.709C4.85282 16.3711 4.81312 16.0226 4.68 15.7084C4.55324 15.4003 4.34276 15.1376 4.07447 14.9525C3.80618 14.7674 3.49179 14.6681 3.17 14.6667H3C2.46957 14.6667 1.96086 14.4473 1.58579 14.0566C1.21071 13.6659 1 13.1359 1 12.5834C1 12.0309 1.21071 11.501 1.58579 11.1103C1.96086 10.7196 2.46957 10.5001 3 10.5001H3.09C3.42099 10.492 3.742 10.3804 4.0113 10.1798C4.28059 9.97915 4.48572 9.69876 4.6 9.37508C4.73312 9.0609 4.77282 8.71238 4.714 8.37447C4.65519 8.03656 4.50054 7.72475 4.27 7.47925L4.21 7.41675C4.02405 7.22326 3.87653 6.99349 3.77588 6.74058C3.67523 6.48767 3.62343 6.21657 3.62343 5.94279C3.62343 5.66901 3.67523 5.39791 3.77588 5.145C3.87653 4.89208 4.02405 4.66232 4.21 4.46883C4.39575 4.27513 4.61632 4.12147 4.85912 4.01662C5.10192 3.91178 5.36217 3.85782 5.625 3.85782C5.88783 3.85782 6.14808 3.91178 6.39088 4.01662C6.63368 4.12147 6.85425 4.27513 7.04 4.46883L7.1 4.53133C7.33568 4.77147 7.63502 4.93257 7.95941 4.99384C8.28381 5.05511 8.61838 5.01374 8.92 4.87508H9C9.29577 4.74304 9.54802 4.52378 9.72569 4.24432C9.90337 3.96485 9.99872 3.63736 10 3.30216V3.12508C10 2.57255 10.2107 2.04264 10.5858 1.65194C10.9609 1.26124 11.4696 1.04175 12 1.04175C12.5304 1.04175 13.0391 1.26124 13.4142 1.65194C13.7893 2.04264 14 2.57255 14 3.12508V3.21883C14.0013 3.55403 14.0966 3.88151 14.2743 4.16098C14.452 4.44045 14.7042 4.6597 15 4.79175C15.3016 4.93041 15.6362 4.97177 15.9606 4.9105C16.285 4.84923 16.5843 4.68814 16.82 4.448L16.88 4.3855C17.0657 4.1918 17.2863 4.03813 17.5291 3.93329C17.7719 3.82845 18.0322 3.77448 18.295 3.77448C18.5578 3.77448 18.8181 3.82845 19.0609 3.93329C19.3037 4.03813 19.5243 4.1918 19.71 4.3855C19.896 4.57898 20.0435 4.80875 20.1441 5.06166C20.2448 5.31458 20.2966 5.58567 20.2966 5.85946C20.2966 6.13324 20.2448 6.40434 20.1441 6.65725C20.0435 6.91016 19.896 7.13993 19.71 7.33341L19.65 7.39591C19.4195 7.64141 19.2648 7.95322 19.206 8.29113C19.1472 8.62905 19.1869 8.97756 19.32 9.29175V9.37508C19.4468 9.68317 19.6572 9.94593 19.9255 10.131C20.1938 10.3161 20.5082 10.4154 20.83 10.4167H21C21.5304 10.4167 22.0391 10.6362 22.4142 11.0269C22.7893 11.4176 23 11.9475 23 12.5001C23 13.0526 22.7893 13.5825 22.4142 13.9732C22.0391 14.3639 21.5304 14.5834 21 14.5834H20.91C20.5882 14.5848 20.2738 14.6841 20.0055 14.8692C19.7372 15.0542 19.5268 15.317 19.4 15.6251V15.6251Z" stroke="white" stroke-width="2" stroke-linecap="round" stroke-linejoin="round"/>
</svg>
