<svg width="24" height="25" viewBox="0 0 24 25" fill="none" xmlns="http://www.w3.org/2000/svg">
<path d="M17 21.875V19.7917C17 18.6866 16.5786 17.6268 15.8284 16.8454C15.0783 16.064 14.0609 15.625 13 15.625H5C3.93913 15.625 2.92172 16.064 2.17157 16.8454C1.42143 17.6268 1 18.6866 1 19.7917V21.875" stroke="white" stroke-width="2" stroke-linecap="round" stroke-linejoin="round"/>
<path d="M9 11.4583C11.2091 11.4583 13 9.59286 13 7.29167C13 4.99048 11.2091 3.125 9 3.125C6.79086 3.125 5 4.99048 5 7.29167C5 9.59286 6.79086 11.4583 9 11.4583Z" stroke="white" stroke-width="2" stroke-linecap="round" stroke-linejoin="round"/>
<path d="M23 21.8751V19.7918C22.9993 18.8686 22.7044 17.9717 22.1614 17.2421C21.6184 16.5124 20.8581 15.9913 20 15.7605" stroke="white" stroke-width="2" stroke-linecap="round" stroke-linejoin="round"/>
<path d="M16 3.2605C16.8604 3.48998 17.623 4.01123 18.1676 4.74207C18.7122 5.47292 19.0078 6.37178 19.0078 7.29696C19.0078 8.22214 18.7122 9.121 18.1676 9.85184C17.623 10.5827 16.8604 11.1039 16 11.3334" stroke="white" stroke-width="2" stroke-linecap="round" stroke-linejoin="round"/>
</svg>
