<svg width="24" height="23" viewBox="0 0 24 23" fill="none" xmlns="http://www.w3.org/2000/svg">
<path d="M5 15.9375H4C3.46957 15.9375 2.96086 15.74 2.58579 15.3883C2.21071 15.0367 2 14.5598 2 14.0625V4.6875C2 4.19022 2.21071 3.71331 2.58579 3.36167C2.96086 3.01004 3.46957 2.8125 4 2.8125H20C20.5304 2.8125 21.0391 3.01004 21.4142 3.36167C21.7893 3.71331 22 4.19022 22 4.6875V14.0625C22 14.5598 21.7893 15.0367 21.4142 15.3883C21.0391 15.74 20.5304 15.9375 20 15.9375H19" stroke="white" stroke-width="2" stroke-linecap="round" stroke-linejoin="round"/>
<path d="M12 14.0625L17 19.6875H7L12 14.0625Z" stroke="white" stroke-width="2" stroke-linecap="round" stroke-linejoin="round"/>
</svg>
